<svg width="24" height="24" xmlns="http://www.w3.org/2000/svg">
 <defs>
  <radialGradient cx="0.5" gradientTransform="translate(0,0) scale(1,0.29000000000000004)" r="2.234369" cy="0" spreadMethod="pad" id="svg_10">
   <stop offset="0.1875" stop-opacity="0.996094" stop-color="#ffd369"/>
   <stop offset="1" stop-opacity="0.996094" stop-color="#eeeeee"/>
  </radialGradient>
 </defs>
 <g>
  <title>background</title>
  <rect fill="none" id="canvas_background" height="402" width="582" y="-1" x="-1"/>
 </g>
 <g>
  <title>Layer 1</title>
  <path fill="url(#svg_10)" id="svg_1" d="m16.433001,8.596c-1.153001,0 -2.237,0.449 -3.036,1.246l-1.396,1.34l-1.375,-1.32c-0.815001,-0.817 -1.901,-1.266001 -3.055,-1.266001c-1.154,0 -2.239,0.451 -3.053,1.266001c-0.817,0.816 -1.267,1.9 -1.267,3.054999c0,1.152 0.449,2.238 1.266,3.053c0.814,0.815999 1.899,1.266 3.054,1.266c1.153,0 2.239,-0.448999 3.036,-1.248l1.395,-1.338l1.376,1.320001c0.815,0.815999 1.901,1.266 3.055,1.266s2.237999,-0.448999 3.052999,-1.266c0.816999,-0.814 1.267,-1.900001 1.267,-3.055s-0.448999,-2.238 -1.266001,-3.055c-0.816999,-0.815 -1.900999,-1.264 -3.053999,-1.264zm-7.576,5.605c-0.687,0.688 -1.884,0.688 -2.572001,0c-0.344,-0.344 -0.533,-0.801001 -0.533,-1.285c0,-0.486 0.189,-0.941 0.535,-1.287001c0.342,-0.344 0.799,-0.533 1.284,-0.533s0.941999,0.189 1.305,0.551001l1.320999,1.27l-1.339999,1.284zm8.861,0c-0.687,0.689 -1.866,0.705 -2.59,-0.018001l-1.321,-1.27l1.339,-1.285c0.688,-0.688001 1.886,-0.688001 2.573,-0.002c0.344,0.346 0.533001,0.801 0.533001,1.287s-0.190001,0.944 -0.534,1.288z"/>
 </g>
</svg>